<svg width="264" height="73" viewBox="0 0 264 73" fill="none" xmlns="http://www.w3.org/2000/svg">
<path d="M21.8853 21.9091V51H16.6154V21.9091H21.8853ZM31.484 21.9091L39.055 44.8068H39.3533L46.9102 21.9091H52.7056L42.4499 51H35.9442L25.7028 21.9091H31.484ZM74.4634 31.1989C74.2267 30.4318 73.9 29.7453 73.4833 29.1392C73.0761 28.5237 72.5837 27.9981 72.006 27.5625C71.4379 27.1269 70.7844 26.8002 70.0458 26.5824C69.3072 26.3551 68.5022 26.2415 67.631 26.2415C66.0685 26.2415 64.6765 26.6345 63.4549 27.4205C62.2333 28.2064 61.2721 29.3617 60.5714 30.8864C59.8801 32.4015 59.5344 34.2481 59.5344 36.4261C59.5344 38.6231 59.8801 40.4839 60.5714 42.0085C61.2627 43.5331 62.2238 44.6932 63.4549 45.4886C64.686 46.2746 66.1159 46.6676 67.7447 46.6676C69.2219 46.6676 70.5004 46.3835 71.5799 45.8153C72.6689 45.2472 73.507 44.4422 74.0941 43.4006C74.6812 42.3494 74.9748 41.1184 74.9748 39.7074L76.168 39.892H68.2702V35.7727H80.0742V39.267C80.0742 41.7576 79.5439 43.9119 78.4833 45.7301C77.4227 47.5483 75.9644 48.9498 74.1083 49.9347C72.2522 50.91 70.1216 51.3977 67.7163 51.3977C65.0363 51.3977 62.6831 50.7964 60.6566 49.5938C58.6396 48.3816 57.0629 46.6629 55.9265 44.4375C54.7996 42.2027 54.2362 39.5511 54.2362 36.483C54.2362 34.1345 54.5676 32.0369 55.2305 30.1903C55.9028 28.3438 56.8403 26.7765 58.043 25.4886C59.2456 24.1913 60.6566 23.2064 62.2759 22.5341C63.8952 21.8523 65.6566 21.5114 67.56 21.5114C69.1699 21.5114 70.6708 21.7481 72.0629 22.2216C73.4549 22.6856 74.6907 23.3485 75.7702 24.2102C76.8593 25.072 77.7541 26.0947 78.4549 27.2784C79.1557 28.4621 79.6149 29.7689 79.8327 31.1989H74.4634ZM88.0075 51H82.3825L92.6239 21.9091H99.1296L109.385 51H103.76L95.9904 27.875H95.7631L88.0075 51ZM88.1921 39.5938H103.533V43.8267H88.1921V39.5938ZM113.217 21.9091H119.666L128.302 42.9886H128.643L137.279 21.9091H143.728V51H138.672V31.0142H138.402L130.362 50.9148H126.583L118.544 30.9716H118.274V51H113.217V21.9091ZM199.076 51V21.9091H209.985C212.22 21.9091 214.095 22.2973 215.61 23.0739C217.135 23.8504 218.286 24.9394 219.062 26.3409C219.848 27.733 220.241 29.357 220.241 31.2131C220.241 33.0786 219.843 34.6979 219.048 36.071C218.262 37.4347 217.102 38.4905 215.568 39.2386C214.034 39.9773 212.149 40.3466 209.914 40.3466H202.145V35.9716H209.204C210.511 35.9716 211.581 35.7917 212.414 35.4318C213.248 35.0625 213.863 34.5275 214.261 33.8267C214.668 33.1165 214.872 32.2453 214.872 31.2131C214.872 30.1809 214.668 29.3002 214.261 28.571C213.854 27.8324 213.234 27.2737 212.4 26.8949C211.567 26.5066 210.492 26.3125 209.176 26.3125H204.346V51H199.076ZM214.105 37.8182L221.306 51H215.426L208.352 37.8182H214.105ZM221.971 21.9091H227.922L235.039 34.7784H235.323L242.439 21.9091H248.391L237.809 40.1477V51H232.553V40.1477L221.971 21.9091Z" fill="#00B3EC"/>
<path d="M170.996 54C174.771 54.0039 178.451 52.847 181.509 50.6947C183.078 49.7523 184.951 49.4112 186.765 49.7381C188.578 50.0649 190.201 51.0361 191.318 52.4627C191.468 52.655 191.691 52.7814 191.937 52.8141C192.183 52.8468 192.432 52.783 192.63 52.637C192.828 52.4909 192.958 52.2744 192.991 52.0351C193.025 51.7959 192.959 51.5534 192.809 51.3611C191.87 50.16 190.637 49.2067 189.222 48.5883C187.806 47.97 186.254 47.7063 184.707 47.8213C187.477 44.6643 188.996 40.6496 188.993 36.5C188.993 26.8505 180.92 19 170.996 19C161.073 19 153 26.8505 153 36.5C153 46.1495 161.073 54 170.996 54ZM170.996 20.8208C179.887 20.8208 187.12 27.8545 187.12 36.5C187.12 38.9729 186.518 41.4105 185.363 43.6136C184.208 45.8167 182.533 47.7227 180.475 49.1756C180.244 49.3167 180.018 49.4687 179.796 49.6315C177.181 51.297 174.122 52.1826 170.996 52.1791C162.106 52.1791 154.872 45.1455 154.872 36.5C154.872 27.8545 162.106 20.8208 170.996 20.8208Z" fill="white"/>
<path d="M170.996 32.9921C170.283 32.9921 169.586 33.1978 168.992 33.5833C168.399 33.9687 167.937 34.5165 167.664 35.1575C167.391 35.7985 167.319 36.5038 167.458 37.1843C167.597 37.8647 167.941 38.4898 168.446 38.9804C168.95 39.471 169.593 39.805 170.293 39.9404C170.992 40.0758 171.718 40.0063 172.377 39.7408C173.036 39.4753 173.599 39.0257 173.996 38.4488C174.392 37.872 174.604 37.1938 174.604 36.5C174.603 35.57 174.222 34.6783 173.546 34.0207C172.87 33.3631 171.953 32.9932 170.996 32.9921ZM170.996 38.187C170.653 38.187 170.318 38.0881 170.033 37.9027C169.747 37.7174 169.525 37.4539 169.394 37.1456C169.262 36.8374 169.228 36.4982 169.295 36.1709C169.362 35.8437 169.527 35.543 169.77 35.3071C170.012 35.0712 170.321 34.9105 170.658 34.8454C170.994 34.7803 171.343 34.8137 171.66 34.9414C171.977 35.0691 172.248 35.2853 172.439 35.5627C172.629 35.8401 172.731 36.1663 172.731 36.5C172.731 36.9472 172.548 37.376 172.223 37.6923C171.897 38.0085 171.456 38.1864 170.996 38.187ZM170.996 31.7663C171.858 31.7663 172.699 31.518 173.416 31.0527C174.132 30.5875 174.69 29.9262 175.019 29.1525C175.349 28.3788 175.435 27.5274 175.267 26.706C175.099 25.8847 174.684 25.1302 174.075 24.5381C173.466 23.9459 172.69 23.5427 171.846 23.3793C171.001 23.216 170.126 23.2998 169.33 23.6203C168.534 23.9408 167.854 24.4836 167.376 25.1799C166.897 25.8762 166.642 26.6949 166.642 27.5323C166.643 28.6549 167.103 29.7311 167.919 30.5249C168.735 31.3186 169.842 31.7651 170.996 31.7663ZM170.996 25.1189C171.487 25.1189 171.967 25.2604 172.375 25.5256C172.783 25.7908 173.101 26.1677 173.289 26.6087C173.477 27.0497 173.526 27.5349 173.431 28.003C173.335 28.4712 173.098 28.9012 172.751 29.2387C172.404 29.5762 171.962 29.8061 171.481 29.8992C170.999 29.9923 170.5 29.9446 170.047 29.7619C169.593 29.5793 169.206 29.27 168.933 28.8731C168.66 28.4762 168.515 28.0096 168.515 27.5323C168.515 26.8925 168.777 26.279 169.242 25.8266C169.708 25.3741 170.338 25.1196 170.996 25.1189ZM170.996 50.6983C171.858 50.6983 172.699 50.45 173.416 49.9847C174.132 49.5195 174.69 48.8582 175.019 48.0845C175.349 47.3108 175.435 46.4595 175.267 45.6381C175.099 44.8168 174.684 44.0623 174.075 43.4701C173.466 42.878 172.691 42.4747 171.846 42.3113C171.001 42.148 170.126 42.2318 169.33 42.5523C168.534 42.8728 167.854 43.4155 167.376 44.1118C166.898 44.8081 166.642 45.6267 166.642 46.4642C166.643 47.5867 167.103 48.663 167.919 49.4568C168.735 50.2506 169.842 50.6971 170.996 50.6983ZM170.996 44.0509C171.487 44.0509 171.967 44.1924 172.375 44.4576C172.783 44.7228 173.101 45.0997 173.289 45.5407C173.477 45.9817 173.526 46.4669 173.431 46.9351C173.335 47.4032 173.098 47.8333 172.751 48.1708C172.404 48.5083 171.962 48.7381 171.481 48.8312C170.999 48.9243 170.5 48.8765 170.047 48.6938C169.593 48.5112 169.206 48.2018 168.933 47.805C168.66 47.4081 168.515 46.9415 168.515 46.4642C168.515 45.8243 168.777 45.2109 169.242 44.7585C169.708 44.3061 170.338 44.0516 170.996 44.0509ZM180.731 41.2323C181.592 41.2323 182.434 40.984 183.15 40.5187C183.866 40.0535 184.424 39.3922 184.754 38.6185C185.083 37.8448 185.17 36.9935 185.001 36.1721C184.833 35.3508 184.419 34.5963 183.81 34.0041C183.201 33.412 182.425 33.0087 181.58 32.8453C180.736 32.682 179.86 32.7658 179.065 33.0863C178.269 33.4068 177.589 33.9495 177.11 34.6458C176.632 35.3421 176.377 36.1607 176.377 36.9982C176.378 38.1207 176.837 39.197 177.653 39.9908C178.47 40.7846 179.576 41.2311 180.731 41.2323ZM180.731 34.5849C181.222 34.5849 181.702 34.7264 182.11 34.9916C182.518 35.2568 182.836 35.6337 183.024 36.0747C183.212 36.5157 183.261 37.001 183.165 37.4691C183.069 37.9372 182.833 38.3673 182.486 38.7048C182.139 39.0423 181.696 39.2721 181.215 39.3652C180.734 39.4583 180.235 39.4105 179.781 39.2279C179.328 39.0452 178.94 38.7358 178.667 38.339C178.395 37.9421 178.249 37.4755 178.249 36.9982C178.25 36.3583 178.512 35.7449 178.977 35.2925C179.442 34.8401 180.073 34.5856 180.731 34.5849ZM165.616 36.9982C165.616 36.1607 165.361 35.3421 164.882 34.6458C164.404 33.9495 163.724 33.4068 162.928 33.0863C162.133 32.7658 161.257 32.682 160.412 32.8453C159.568 33.0087 158.792 33.412 158.183 34.0041C157.574 34.5963 157.159 35.3508 156.991 36.1721C156.823 36.9935 156.909 37.8448 157.239 38.6185C157.569 39.3922 158.127 40.0535 158.843 40.5187C159.559 40.984 160.401 41.2323 161.262 41.2323C162.416 41.2311 163.523 40.7846 164.339 39.9908C165.156 39.197 165.615 38.1207 165.616 36.9982ZM158.78 36.9982C158.78 36.5208 158.926 36.0542 159.198 35.6574C159.471 35.2605 159.859 34.9512 160.312 34.7685C160.766 34.5859 161.265 34.5381 161.746 34.6312C162.228 34.7243 162.67 34.9542 163.017 35.2917C163.364 35.6292 163.6 36.0592 163.696 36.5274C163.792 36.9955 163.743 37.4808 163.555 37.9218C163.367 38.3627 163.049 38.7396 162.641 39.0048C162.233 39.27 161.753 39.4115 161.262 39.4115C160.604 39.4108 159.973 39.1563 159.508 38.7038C159.043 38.2514 158.781 37.638 158.78 36.9982Z" fill="white"/>
</svg>
